<?xml version="1.0" encoding="UTF-8"?>
<svg id="Layer_1" data-name="Layer 1" xmlns="http://www.w3.org/2000/svg" viewBox="0 0 299.33 133.81">
  <defs>
    <style>
      .cls-1 {
        fill: #21323f;
      }

      .cls-2 {
        fill: #d6b38c;
      }
    </style>
  </defs>
  <path class="cls-1" d="M.21,108.62c1.76-2.96,12.11,2.73,25.28,2.13,6.02-.28,10.44-2.14,17.38-4.43,16.23-5.36,30.75-14.5,46.29-21.37,22.5-9.95,45.51-17.76,70.7-15.87,3.53.26,6.98.79,10.35,1.55,5.89,1.34,12.32,2.71,18.62,7.12,5.06,3.55,8.2,7.71,7.72,8.31-.42.54-3.53-2.05-9.2-2.67-1.69-.18-2.97-.13-3.75-.08-9.98.52-15.25,4.12-16.42,11.67-1.15,7.43,4.38,15.01,13.01,17.6,9.63,2.9,19.46,4.45,29.55,4.33,8.82-.11,29.54-.61,47.25,1.35,21.88,2.43,42.6,8.89,42.32,10.51-.09.55-2.63.6-3.76.54-32.52-1.83-64.78,2.26-97.13,4.27-19.29,1.2-37.99-2.31-56.75-5.71-19.52-3.54-39.17-2.75-58.77-1.37-18.7,1.32-37.38,3.04-55.95-.7-3.62-.73-18.85-2.69-25.48-12.68-1.98-2.99-1.51-4.13-1.3-4.48Z"/>
  <path class="cls-2" d="M79.87,69.05c.63-34.28,24.66-61.67,59.68-68,35.77-6.47,73.07,17.88,82.27,53.14,1.35,5.18,2.39,13.34,2.64,19.84.28,7.26.8,20.3-4.1,22.07-1.42.51-2.96-.05-5.6-1.01-1.14-.41-4.55-1.7-7.26-5.01-.62-.75-.86-1.2-2.99-5.27-1.5-2.89-1.91-4.54-3.53-6.79-3.69-5.11-8.99-8.47-15.2-10.9-16.74-6.55-34.01-6.21-51.35-3.63-17.12,2.55-33.34,8.41-49.28,14.85-5.02,2.03-5.72.68-5.38-3.73.14-1.85.07-3.71.1-5.56Z"/>
</svg>